<?xml version="1.0" standalone="no"?><svg xmlns:xlink="http://www.w3.org/1999/xlink" xmlns="http://www.w3.org/2000/svg" viewBox="0 0 1000 545.4547372796685" preserveAspectRatio="xMaxYMax slice"><g transform="scale(1.0550381765564187)"><rect x="0" y="0" width="947.8333333333334" height="517" fill="#ffffff"/><path d="M 34.47 51.7 A 17.23 17.23 0 0 0 51.7 34.47 L 34.47 34.47" fill="#F8CA00"/><path d="M 120.63 51.7 A 17.23 17.23 0 0 0 137.85999999999999 34.47 L 120.63 34.47" fill="#BD1550"/><rect x="206.8" y="34.46666666666667" width="17.233333333333334" height="17.233333333333334" fill="#ffffff"/><path d="M 206.8 43.089999999999996 A 8.62 8.62 0 0 0 215.42000000000002 34.47 L 206.8 34.47" fill="#BD1550"/><path d="M 206.8 51.699999999999996 A 8.62 8.62 0 0 1  215.42000000000002 43.08 L 215.42000000000002 51.699999999999996" fill="#8A9B0F"/><path d="M 215.42 51.699999999999996 A 8.62 8.62 0 0 1  224.04 43.08 L 224.04 51.699999999999996" fill="#F8CA00"/><rect x="292.9666666666667" y="34.46666666666667" width="17.233333333333334" height="17.233333333333334" fill="#ffffff"/><path d="M 292.97 34.47 A 8.62 8.62 0 0 1 301.59000000000003 43.089999999999996 L 292.97 43.089999999999996" fill="#BD1550"/><path d="M 301.58 34.47 A 8.62 8.62 0 0 1 310.2 43.089999999999996 L 301.58 43.089999999999996" fill="#8A9B0F"/><path d="M 292.97 51.699999999999996 A 8.62 8.62 0 0 1  301.59000000000003 43.08 L 301.59000000000003 51.699999999999996" fill="#F8CA00"/><path d="M 301.58 51.699999999999996 A 8.62 8.62 0 0 1  310.2 43.08 L 310.2 51.699999999999996" fill="#8A9B0F"/><path d="M 465.3 51.7 A 17.23 17.23 0 0 1  482.53000000000003 34.47 L 482.53000000000003 51.7" fill="#BD1550"/><rect x="723.8000000000001" y="34.46666666666667" width="17.233333333333334" height="17.233333333333334" fill="#ffffff"/><path d="M 723.8 34.47 A 8.62 8.62 0 0 1 732.42 43.089999999999996 L 723.8 43.089999999999996" fill="#490A3D"/><path d="M 732.42 43.089999999999996 A 8.62 8.62 0 0 0 741.04 34.47 L 732.42 34.47" fill="#E97F02"/><path d="M 732.42 43.08 A 8.62 8.62 0 0 0 741.04 51.699999999999996 L 741.04 43.08" fill="#490A3D"/><path d="M 809.97 51.7 A 17.23 17.23 0 0 0 827.2 34.47 L 809.97 34.47" fill="#F8CA00"/><path d="M 896.13 34.47 A 17.23 17.23 0 0 1  913.36 51.7 L 896.13 34.47 A 17.23 17.23 0 0 0 913.36 51.7" fill="#BD1550"/><rect x="206.8" y="120.63333333333334" width="17.233333333333334" height="17.233333333333334" fill="#ffffff"/><path d="M 206.8 120.63 A 8.62 8.62 0 0 1  215.42000000000002 129.25 L 206.8 120.63 A 8.62 8.62 0 0 0 215.42000000000002 129.25" fill="#8A9B0F"/><path d="M 215.42 129.25 A 8.62 8.62 0 0 1  224.04 120.63 L 215.42 129.25 A 8.62 8.62 0 0 0 224.04 120.63" fill="#BD1550"/><path d="M 292.97 120.63 A 17.23 17.23 0 0 0 310.20000000000005 137.85999999999999 L 310.20000000000005 120.63" fill="#8A9B0F"/><path d="M 379.13 120.63 A 17.23 17.23 0 0 0 396.36 137.85999999999999 L 396.36 120.63" fill="#F8CA00"/><path d="M 465.3 120.63 A 17.23 17.23 0 0 0 482.53000000000003 137.85999999999999 L 482.53000000000003 120.63" fill="#8A9B0F"/><path d="M 551.47 120.63 A 17.23 17.23 0 0 1 568.7 137.85999999999999 L 551.47 137.85999999999999" fill="#8A9B0F"/><path d="M 637.63 120.63 A 17.23 17.23 0 0 1 654.86 137.85999999999999 L 637.63 137.85999999999999" fill="#E97F02"/><path d="M 723.8 137.85999999999999 A 17.23 17.23 0 0 1  741.03 120.63 L 741.03 137.85999999999999" fill="#490A3D"/><path d="M 896.13 120.63 A 17.23 17.23 0 0 1 913.36 137.85999999999999 L 896.13 137.85999999999999" fill="#F8CA00"/><path d="M 34.47 206.8 A 17.23 17.23 0 0 0 51.7 224.03 L 51.7 206.8" fill="#BD1550"/><path d="M 120.63 224.03 A 17.23 17.23 0 0 0 137.85999999999999 206.8 L 120.63 206.8" fill="#8A9B0F"/><path d="M 206.8 206.8 A 17.23 17.23 0 0 0 224.03 224.03 L 224.03 206.8" fill="#F8CA00"/><path d="M 292.97 224.03 A 17.23 17.23 0 0 1  310.20000000000005 206.8 L 310.20000000000005 224.03" fill="#E97F02"/><path d="M 465.3 224.03 A 17.23 17.23 0 0 0 482.53000000000003 206.8 L 465.3 206.8" fill="#490A3D"/><path d="M 551.47 206.8 A 17.23 17.23 0 0 1  568.7 224.03 L 551.47 206.8 A 17.23 17.23 0 0 0 568.7 224.03" fill="#490A3D"/><path d="M 637.63 206.8 A 17.23 17.23 0 0 1 654.86 224.03 L 637.63 224.03" fill="#490A3D"/><path d="M 723.8 206.8 A 17.23 17.23 0 0 1 741.03 224.03 L 723.8 224.03" fill="#490A3D"/><path d="M 809.97 206.8 A 17.23 17.23 0 0 0 827.2 224.03 L 827.2 206.8" fill="#490A3D"/><path d="M 896.13 224.03 A 17.23 17.23 0 0 0 913.36 206.8 L 896.13 206.8" fill="#490A3D"/><path d="M 34.47 310.20000000000005 A 17.23 17.23 0 0 1  51.7 292.97 L 34.47 310.20000000000005 A 17.23 17.23 0 0 0 51.7 292.97" fill="#E97F02"/><path d="M 206.8 292.97 A 17.23 17.23 0 0 1  224.03 310.20000000000005 L 206.8 292.97 A 17.23 17.23 0 0 0 224.03 310.20000000000005" fill="#490A3D"/><path d="M 465.3 292.97 A 17.23 17.23 0 0 0 482.53000000000003 310.20000000000005 L 482.53000000000003 292.97" fill="#490A3D"/><path d="M 637.63 292.97 A 17.23 17.23 0 0 1  654.86 310.20000000000005 L 637.63 292.97 A 17.23 17.23 0 0 0 654.86 310.20000000000005" fill="#8A9B0F"/><path d="M 896.13 292.97 A 17.23 17.23 0 0 1 913.36 310.20000000000005 L 896.13 310.20000000000005" fill="#E97F02"/><path d="M 34.47 379.13 A 17.23 17.23 0 0 1 51.7 396.36 L 34.47 396.36" fill="#E97F02"/><path d="M 206.8 396.36 A 17.23 17.23 0 0 0 224.03 379.13 L 206.8 379.13" fill="#BD1550"/><path d="M 292.97 396.36 A 17.23 17.23 0 0 1  310.20000000000005 379.13 L 310.20000000000005 396.36" fill="#F8CA00"/><path d="M 379.13 396.36 A 17.23 17.23 0 0 0 396.36 379.13 L 379.13 379.13" fill="#E97F02"/><rect x="551.4666666666667" y="379.1333333333333" width="17.233333333333334" height="17.233333333333334" fill="#ffffff"/><path d="M 551.47 387.75 A 8.62 8.62 0 0 1  560.09 396.37 L 551.47 387.75 A 8.62 8.62 0 0 0 560.09 396.37" fill="#E97F02"/><path d="M 560.08 396.37 A 8.62 8.62 0 0 1  568.7 387.75 L 568.7 396.37" fill="#BD1550"/><path d="M 637.63 379.13 A 17.23 17.23 0 0 1 654.86 396.36 L 637.63 396.36" fill="#BD1550"/><path d="M 723.8 379.13 A 17.23 17.23 0 0 0 741.03 396.36 L 741.03 379.13" fill="#F8CA00"/><rect x="809.9666666666667" y="379.1333333333333" width="17.233333333333334" height="17.233333333333334" fill="#ffffff"/><path d="M 809.97 387.75 A 8.62 8.62 0 0 1  818.59 379.13 L 818.59 387.75" fill="#8A9B0F"/><path d="M 809.97 396.37 A 8.62 8.62 0 0 1  818.59 387.75 L 809.97 396.37 A 8.62 8.62 0 0 0 818.59 387.75" fill="#E97F02"/><path d="M 818.58 387.75 A 8.62 8.62 0 0 1 827.2 396.37 L 818.58 396.37" fill="#BD1550"/><path d="M 896.13 396.36 A 17.23 17.23 0 0 0 913.36 379.13 L 896.13 379.13" fill="#E97F02"/><path d="M 34.47 482.53000000000003 A 17.23 17.23 0 0 0 51.7 465.3 L 34.47 465.3" fill="#BD1550"/><rect x="292.9666666666667" y="465.30000000000007" width="17.233333333333334" height="17.233333333333334" fill="#ffffff"/><path d="M 292.97 473.92 A 8.62 8.62 0 0 0 301.59000000000003 465.3 L 292.97 465.3" fill="#BD1550"/><path d="M 301.58 473.92 A 8.62 8.62 0 0 1  310.2 465.3 L 301.58 473.92 A 8.62 8.62 0 0 0 310.2 465.3" fill="#490A3D"/><path d="M 292.97 482.54 A 8.62 8.62 0 0 0 301.59000000000003 473.92 L 292.97 473.92" fill="#F8CA00"/><path d="M 301.58 473.92 A 8.62 8.62 0 0 1  310.2 482.54 L 301.58 473.92 A 8.62 8.62 0 0 0 310.2 482.54" fill="#BD1550"/><path d="M 379.13 465.3 A 17.23 17.23 0 0 0 396.36 482.53000000000003 L 396.36 465.3" fill="#8A9B0F"/><rect x="465.30000000000007" y="465.30000000000007" width="17.233333333333334" height="17.233333333333334" fill="#ffffff"/><path d="M 473.92 473.92 A 8.62 8.62 0 0 0 482.54 465.3 L 473.92 465.3" fill="#490A3D"/><rect x="551.4666666666667" y="465.30000000000007" width="17.233333333333334" height="17.233333333333334" fill="#ffffff"/><path d="M 551.47 473.92 A 8.62 8.62 0 0 1  560.09 465.3 L 551.47 473.92 A 8.62 8.62 0 0 0 560.09 465.3" fill="#490A3D"/><path d="M 560.08 465.3 A 8.62 8.62 0 0 0 568.7 473.92 L 568.7 465.3" fill="#490A3D"/><path d="M 560.08 482.54 A 8.62 8.62 0 0 0 568.7 473.92 L 560.08 473.92" fill="#F8CA00"/><path d="M 637.63 465.3 A 17.23 17.23 0 0 1 654.86 482.53000000000003 L 637.63 482.53000000000003" fill="#490A3D"/><path d="M 723.8 465.3 A 17.23 17.23 0 0 1 741.03 482.53000000000003 L 723.8 482.53000000000003" fill="#490A3D"/><rect x="896.1333333333334" y="465.30000000000007" width="17.233333333333334" height="17.233333333333334" fill="#ffffff"/><path d="M 904.75 465.3 A 8.62 8.62 0 0 0 913.37 473.92 L 913.37 465.3" fill="#F8CA00"/></g></svg>